<?xml version="1.0" encoding="UTF-8"?><svg version="1.1" width="32px" height="32px" viewBox="0 0 32.0 32.0" xmlns="http://www.w3.org/2000/svg" xmlns:xlink="http://www.w3.org/1999/xlink"><defs><clipPath id="i0"><path d="M24,0 C28.418278,-8.11624501e-16 32,3.581722 32,8 L32,24 C32,28.418278 28.418278,32 24,32 L8,32 C3.581722,32 5.41083001e-16,28.418278 0,24 L0,8 C-5.41083001e-16,3.581722 3.581722,8.11624501e-16 8,0 L24,0 Z"></path></clipPath><linearGradient id="i1" x1="16px" y1="0px" x2="16px" y2="32px" gradientUnits="userSpaceOnUse"><stop stop-color="#F53407" offset="0%"></stop><stop stop-color="#EF1F1F" offset="100%"></stop></linearGradient><clipPath id="i2"><path d="M10.3921572,0 L10.4671337,0.00988510191 C10.566464,0.0362453736 10.661949,0.115326188 10.7380896,0.24712754 L12.704526,3.65044981 L12.7609941,3.76754681 C12.8928304,4.09749282 12.8746888,4.55665077 12.7061642,4.85013747 L12.0695821,5.95879636 L12.0198098,6.03446468 C11.8290956,6.28670728 11.5536426,6.26166027 11.3794709,5.95923477 L10.7421274,4.85232955 L10.6922521,4.77671459 C10.5011432,4.52465177 10.2251227,4.54970407 10.0506549,4.85196035 L4.08263461,15.1911903 L4.0421922,15.2722465 C3.91982547,15.5639571 4.07977549,15.7903285 4.42877466,15.7899266 L5.70849149,15.7884498 L5.8249388,15.7804396 C6.17989908,15.7334031 6.575609,15.484986 6.74705008,15.1883291 L8.71452472,11.7841531 L8.77962069,11.6872687 C8.99764407,11.4032693 9.41047111,11.1848169 9.75308331,11.1848169 L11.0326386,11.1848169 L11.1490723,11.1769311 C11.5039722,11.1302465 11.8994516,10.881983 12.0706435,10.5851807 L15.3753788,4.85489081 L15.4253217,4.77930571 C15.616693,4.52733514 15.8931276,4.55229226 16.0679127,4.85433702 L16.7100554,5.96384967 L16.7665736,6.08088656 C16.8984737,6.41063657 16.879849,6.86932506 16.710586,7.16236053 L13.4073966,12.8809748 L13.3423269,12.9778649 C13.1243781,13.2618578 12.7115863,13.4800964 12.3689533,13.4798264 L11.085591,13.478788 L10.9691747,13.4865926 C10.6143978,13.5330809 10.2196617,13.7815666 10.0493628,14.0789088 L8.06636005,17.5411401 L8.00164393,17.6382287 C7.78473421,17.9228094 7.37276479,18.1415609 7.03013182,18.1415609 L0.427583012,18.1391611 L0.337159757,18.1336207 C0.0232913329,18.0935847 -0.0932267886,17.8415159 0.0810507206,17.5391327 L10.0461326,0.247519806 C10.1412392,0.0824912222 10.2666636,0 10.3921572,0 Z"></path></clipPath><clipPath id="i3"><path d="M10.3921572,0 C10.5175125,0 10.6429138,0.0823758499 10.7380896,0.24712754 L12.704526,3.65044981 C12.8950161,3.98011472 12.8957544,4.51996493 12.7061642,4.85013747 L12.0695821,5.95879636 C11.8800149,6.2889689 11.5694764,6.28915349 11.3794709,5.95923477 L10.7421274,4.85232955 C10.552168,4.52238775 10.2409834,4.52222623 10.0506549,4.85196035 L4.08263461,15.1911903 C3.89230603,15.5209245 4.04804829,15.790365 4.42877466,15.7899266 L5.70849149,15.7884498 C6.08919478,15.7880114 6.55656,15.5179479 6.74705008,15.1883291 L8.71452472,11.7841531 C8.90503788,11.4545112 9.37240309,11.1848169 9.75308331,11.1848169 L11.0326386,11.1848169 C11.4133189,11.1848169 11.8804303,10.914961 12.0706435,10.5851807 L15.3753788,4.85489081 C15.565592,4.52508746 15.8772381,4.52483364 16.0679127,4.85433702 L16.7100554,5.96384967 C16.9007762,6.29337612 16.9010069,6.83269562 16.710586,7.16236053 L13.4073966,12.8809748 C13.2169757,13.2106627 12.7496566,13.4801264 12.3689533,13.4798264 L11.085591,13.478788 C10.7048877,13.478465 10.2385838,13.7485285 10.0493628,14.0789088 L8.06636005,17.5411401 C7.87713898,17.8714973 7.41083512,18.1415609 7.03013182,18.1415609 L0.427583012,18.1391611 C0.0468797156,18.1389996 -0.109070198,17.8690052 0.0810507206,17.5391327 L10.0461326,0.247519806 C10.1412392,0.0824912222 10.2666636,0 10.3921572,0 Z"></path></clipPath><clipPath id="i4"><path d="M1.11867416,0 L1.19329055,0.00987994714 C1.29216012,0.0362274586 1.38727178,0.115275908 1.46324028,0.24707261 L4.77260854,5.98692991 L4.81304835,6.06805828 C4.93545192,6.36005401 4.77603946,6.58692377 4.42776611,6.58692377 L3.14784713,6.58692377 L3.03163943,6.57902586 C2.67744231,6.53226904 2.28286507,6.28362037 2.11212247,5.98632916 L1.46987186,4.86788256 L1.40809852,4.76028559 C1.24771518,4.48082517 1.12561532,4.2672366 1.12624983,4.26719552 L1.12087869,4.2574599 C1.09205969,4.20636651 0.950801926,3.96036563 0.781798843,3.6669706 L0.143324554,2.55873686 L0.0869384545,2.44148931 C-0.0447403575,2.11110235 -0.0269219521,1.65120709 0.140975868,1.35715483 L0.773923835,0.248528289 C0.86851603,0.0828581702 0.993526017,0 1.11867416,0 Z"></path></clipPath></defs><g clip-path="url(#i0)"><polygon points="0,0 32,0 32,32 0,32 0,0" stroke="none" fill="url(#i1)"></polygon></g><g transform="translate(5.593754472220528 6.486794227891233)"><g clip-path="url(#i2)"><g clip-path="url(#i3)"><polygon points="-1.38777878e-17,0 16.853249,0 16.853249,18.1415609 -1.38777878e-17,18.1415609 -1.38777878e-17,0" stroke="none" fill="#FFFFFF"></polygon></g></g><g transform="translate(15.938179654118358 11.541946593844841)"><g clip-path="url(#i4)"><g clip-path="url(#i4)"><polygon points="6.66133815e-16,0 4.85392901,0 4.85392901,6.58692377 6.66133815e-16,6.58692377 6.66133815e-16,0" stroke="none" fill="#FFFFFF"></polygon></g></g></g></g></svg>